<svg width="512" height="512" viewBox="0 0 512 512" fill="none" xmlns="http://www.w3.org/2000/svg">
<style>
:root { color: #000; }
@media (prefers-color-scheme: dark) { :root { color: #fff; } }
</style>
<path d="M80 56L80 456" stroke="currentColor" stroke-width="40"/>
<g transform="translate(140 400) scale(0.4 -0.4)">
<path fill="currentColor" d="M401 623C489 623 563 583 586 497H721C700 646 571 743 404 743C184 743 39 585 39 363C39 138 182 -11 387 -11C486 -11 569 28 609 84L617 0H725V411H385V298H606V295C606 178 529 108 402 108C267 108 173 197 173 360C173 518 256 623 401 623Z"/>
</g>
</svg>
